<svg width="810.9mm" height="423.6mm" viewBox="0 0 810.9 423.6" xmlns="http://www.w3.org/2000/svg" version="1.1" preserveAspectRatio="xMidYMid meet"><g id="svgGroup" stroke-linecap="round" fill-rule="evenodd" font-size="9pt" stroke="#000" stroke-width="0.25mm" fill="none" style="stroke:#000;stroke-width:0.25mm;fill:none"><path d="M 30.675 420.6 L 56.625 420.6 L 56.625 423.6 L 83.175 423.6 L 83.175 420.6 L 109.125 420.6 L 109.125 423.6 L 135.675 423.6 L 135.675 420.6 L 161.625 420.6 L 161.625 423.6 L 188.175 423.6 L 188.175 420.6 L 214.125 420.6 L 214.125 423.6 L 240.675 423.6 L 240.675 420.6 L 266.625 420.6 L 266.625 423.6 L 297.3 423.6 L 297.3 406.425 L 294.3 406.425 L 294.3 380.475 L 297.3 380.475 L 297.3 363.3 L 266.625 363.3 L 266.625 366.3 L 240.675 366.3 L 240.675 363.3 L 214.125 363.3 L 214.125 366.3 L 188.175 366.3 L 188.175 363.3 L 161.625 363.3 L 161.625 366.3 L 135.675 366.3 L 135.675 363.3 L 109.125 363.3 L 109.125 366.3 L 83.175 366.3 L 83.175 363.3 L 56.625 363.3 L 56.625 366.3 L 30.675 366.3 L 30.675 363.3 L 0 363.3 L 0 380.475 L 3 380.475 L 3 406.425 L 0 406.425 L 0 423.6 L 30.675 423.6 L 30.675 420.6 Z" id="front_outsideCutPath" stroke="#FF0000" stroke-width="0.1" style="stroke:#FF0000;stroke-width:0.1" vector-effect="non-scaling-stroke"/><path d="M 339.975 420.6 L 365.925 420.6 L 365.925 423.6 L 392.475 423.6 L 392.475 420.6 L 418.425 420.6 L 418.425 423.6 L 444.975 423.6 L 444.975 420.6 L 470.925 420.6 L 470.925 423.6 L 507.6 423.6 L 507.6 406.725 L 510.6 406.725 L 510.6 380.175 L 507.6 380.175 L 507.6 363.3 L 470.925 363.3 L 470.925 366.3 L 444.975 366.3 L 444.975 363.3 L 418.425 363.3 L 418.425 366.3 L 392.475 366.3 L 392.475 363.3 L 365.925 363.3 L 365.925 366.3 L 339.975 366.3 L 339.975 363.3 L 303.3 363.3 L 303.3 380.175 L 300.3 380.175 L 300.3 406.725 L 303.3 406.725 L 303.3 423.6 L 339.975 423.6 L 339.975 420.6 Z" id="left_outsideCutPath" stroke="#FF0000" stroke-width="0.1" style="stroke:#FF0000;stroke-width:0.1" vector-effect="non-scaling-stroke"/><path d="M 570.525 420.6 L 596.475 420.6 L 596.475 423.6 L 623.025 423.6 L 623.025 420.6 L 648.975 420.6 L 648.975 423.6 L 675.525 423.6 L 675.525 420.6 L 701.475 420.6 L 701.475 423.6 L 728.025 423.6 L 728.025 420.6 L 753.975 420.6 L 753.975 423.6 L 780.525 423.6 L 780.525 420.6 L 807.9 420.6 L 807.9 384.225 L 810.9 384.225 L 810.9 357.675 L 807.9 357.675 L 807.9 331.725 L 810.9 331.725 L 810.9 305.175 L 807.9 305.175 L 807.9 279.225 L 810.9 279.225 L 810.9 252.675 L 807.9 252.675 L 807.9 216.3 L 780.525 216.3 L 780.525 213.3 L 753.975 213.3 L 753.975 216.3 L 728.025 216.3 L 728.025 213.3 L 701.475 213.3 L 701.475 216.3 L 675.525 216.3 L 675.525 213.3 L 648.975 213.3 L 648.975 216.3 L 623.025 216.3 L 623.025 213.3 L 596.475 213.3 L 596.475 216.3 L 570.525 216.3 L 570.525 213.3 L 543.975 213.3 L 543.975 216.3 L 516.6 216.3 L 516.6 252.675 L 513.6 252.675 L 513.6 279.225 L 516.6 279.225 L 516.6 305.175 L 513.6 305.175 L 513.6 331.725 L 516.6 331.725 L 516.6 357.675 L 513.6 357.675 L 513.6 384.225 L 516.6 384.225 L 516.6 420.6 L 543.975 420.6 L 543.975 423.6 L 570.525 423.6 L 570.525 420.6 Z" id="top_outsideCutPath" stroke="#FF0000" stroke-width="0.1" style="stroke:#FF0000;stroke-width:0.1" vector-effect="non-scaling-stroke"/><path d="M 30.675 357.3 L 56.625 357.3 L 56.625 360.3 L 83.175 360.3 L 83.175 357.3 L 109.125 357.3 L 109.125 360.3 L 135.675 360.3 L 135.675 357.3 L 161.625 357.3 L 161.625 360.3 L 188.175 360.3 L 188.175 357.3 L 214.125 357.3 L 214.125 360.3 L 240.675 360.3 L 240.675 357.3 L 266.625 357.3 L 266.625 360.3 L 297.3 360.3 L 297.3 343.125 L 294.3 343.125 L 294.3 317.175 L 297.3 317.175 L 297.3 300 L 266.625 300 L 266.625 303 L 240.675 303 L 240.675 300 L 214.125 300 L 214.125 303 L 188.175 303 L 188.175 300 L 161.625 300 L 161.625 303 L 135.675 303 L 135.675 300 L 109.125 300 L 109.125 303 L 83.175 303 L 83.175 300 L 56.625 300 L 56.625 303 L 30.675 303 L 30.675 300 L 0 300 L 0 317.175 L 3 317.175 L 3 343.125 L 0 343.125 L 0 360.3 L 30.675 360.3 L 30.675 357.3 Z" id="back_outsideCutPath" stroke="#FF0000" stroke-width="0.1" style="stroke:#FF0000;stroke-width:0.1" vector-effect="non-scaling-stroke"/><path d="M 339.975 357.3 L 365.925 357.3 L 365.925 360.3 L 392.475 360.3 L 392.475 357.3 L 418.425 357.3 L 418.425 360.3 L 444.975 360.3 L 444.975 357.3 L 470.925 357.3 L 470.925 360.3 L 507.6 360.3 L 507.6 343.425 L 510.6 343.425 L 510.6 316.875 L 507.6 316.875 L 507.6 300 L 470.925 300 L 470.925 303 L 444.975 303 L 444.975 300 L 418.425 300 L 418.425 303 L 392.475 303 L 392.475 300 L 365.925 300 L 365.925 303 L 339.975 303 L 339.975 300 L 303.3 300 L 303.3 316.875 L 300.3 316.875 L 300.3 343.425 L 303.3 343.425 L 303.3 360.3 L 339.975 360.3 L 339.975 357.3 Z" id="right_outsideCutPath" stroke="#FF0000" stroke-width="0.1" style="stroke:#FF0000;stroke-width:0.1" vector-effect="non-scaling-stroke"/><path d="M 570.525 207.3 L 596.475 207.3 L 596.475 210.3 L 623.025 210.3 L 623.025 207.3 L 648.975 207.3 L 648.975 210.3 L 675.525 210.3 L 675.525 207.3 L 701.475 207.3 L 701.475 210.3 L 728.025 210.3 L 728.025 207.3 L 753.975 207.3 L 753.975 210.3 L 780.525 210.3 L 780.525 207.3 L 807.9 207.3 L 807.9 170.925 L 810.9 170.925 L 810.9 144.375 L 807.9 144.375 L 807.9 118.425 L 810.9 118.425 L 810.9 91.875 L 807.9 91.875 L 807.9 65.925 L 810.9 65.925 L 810.9 39.375 L 807.9 39.375 L 807.9 3 L 780.525 3 L 780.525 0 L 753.975 0 L 753.975 3 L 728.025 3 L 728.025 0 L 701.475 0 L 701.475 3 L 675.525 3 L 675.525 0 L 648.975 0 L 648.975 3 L 623.025 3 L 623.025 0 L 596.475 0 L 596.475 3 L 570.525 3 L 570.525 0 L 543.975 0 L 543.975 3 L 516.6 3 L 516.6 39.375 L 513.6 39.375 L 513.6 65.925 L 516.6 65.925 L 516.6 91.875 L 513.6 91.875 L 513.6 118.425 L 516.6 118.425 L 516.6 144.375 L 513.6 144.375 L 513.6 170.925 L 516.6 170.925 L 516.6 207.3 L 543.975 207.3 L 543.975 210.3 L 570.525 210.3 L 570.525 207.3 Z" id="bottom_outsideCutPath" stroke="#FF0000" stroke-width="0.1" style="stroke:#FF0000;stroke-width:0.1" vector-effect="non-scaling-stroke"/></g></svg>